HIERARCHY
ROOT Hips
{
 OFFSET 0.000000 0.000000 0.000000
 CHANNELS 6 Xposition Yposition Zposition Yrotation Xrotation Zrotation
 JOINT Chest
 {
  OFFSET 0.000000 9.585900 0.002600
  CHANNELS 3 Yrotation Xrotation Zrotation
  JOINT Chest2
  {
   OFFSET 0.000000 9.601200 -0.005300
   CHANNELS 3 Yrotation Xrotation Zrotation
   JOINT Chest3
   {
    OFFSET 0.000000 9.561800 0.000000
    CHANNELS 3 Yrotation Xrotation Zrotation
    JOINT Chest4
    {
     OFFSET 0.000000 9.552100 0.000000
     CHANNELS 3 Yrotation Xrotation Zrotation
     JOINT Neck
     {
      OFFSET 0.000000 14.453000 0.000000
      CHANNELS 3 Yrotation Xrotation Zrotation
      JOINT Head
      {
       OFFSET 0.000000 8.936500 -0.011300
       CHANNELS 3 Yrotation Xrotation Zrotation
       End Site
       {
        OFFSET 0.000000 17.073600 -0.006000
       }
      }
     }
     JOINT RightCollar
     {
      OFFSET -2.921100 9.558500 0.000000
      CHANNELS 3 Yrotation Xrotation Zrotation
      JOINT RightShoulder
      {
       OFFSET -13.519700 0.000000 0.000000
       CHANNELS 3 Yrotation Xrotation Zrotation
       JOINT RightElbow
       {
        OFFSET 0.000000 -29.696600 0.000000
        CHANNELS 3 Yrotation Xrotation Zrotation
        JOINT RightWrist
        {
         OFFSET 0.000000 -24.004700 0.000000
         CHANNELS 3 Yrotation Xrotation Zrotation
         End Site
         {
          OFFSET 0.000000 -17.728500 0.000000
         }
        }
       }
      }
     }
     JOINT LeftCollar
     {
      OFFSET 2.921100 9.558500 0.000000
      CHANNELS 3 Yrotation Xrotation Zrotation
      JOINT LeftShoulder
      {
       OFFSET 13.519700 0.000000 0.000000
       CHANNELS 3 Yrotation Xrotation Zrotation
       JOINT LeftElbow
       {
        OFFSET 0.000000 -29.696600 0.000000
        CHANNELS 3 Yrotation Xrotation Zrotation
        JOINT LeftWrist
        {
         OFFSET 0.000000 -24.004700 0.000000
         CHANNELS 3 Yrotation Xrotation Zrotation
         End Site
         {
          OFFSET 0.000000 -17.728500 0.000000
         }
        }
       }
      }
     }
    }
   }
  }
 }
 JOINT RightHip
 {
  OFFSET -7.771700 -0.012900 -0.001300
  CHANNELS 3 Yrotation Xrotation Zrotation
  JOINT RightKnee
  {
   OFFSET 0.000000 -40.869800 0.001200
   CHANNELS 3 Yrotation Xrotation Zrotation
   JOINT RightAnkle
   {
    OFFSET 0.000000 -39.717900 0.002100
    CHANNELS 3 Yrotation Xrotation Zrotation
    JOINT RightToe
    {
     OFFSET 0.000000 -4.965400 11.033500
     CHANNELS 3 Yrotation Xrotation Zrotation
     End Site
     {
      OFFSET 0.000000 -1.423100 5.872300
     }
    }
   }
  }
 }
 JOINT LeftHip
 {
  OFFSET 7.771700 -0.012900 -0.001300
  CHANNELS 3 Yrotation Xrotation Zrotation
  JOINT LeftKnee
  {
   OFFSET 0.000000 -40.869800 0.001200
   CHANNELS 3 Yrotation Xrotation Zrotation
   JOINT LeftAnkle
   {
    OFFSET 0.000000 -39.717900 0.002100
    CHANNELS 3 Yrotation Xrotation Zrotation
    JOINT LeftToe
    {
     OFFSET 0.000000 -4.965400 11.033500
     CHANNELS 3 Yrotation Xrotation Zrotation
     End Site
     {
      OFFSET 0.000000 -1.423100 5.872300
     }
    }
   }
  }
 }
}
MOTION
Frames: 8
Frame Time: 0.008333
0.000000 85.388000 0.000000 0.000000 -5.767877 0.000000 0.000000 11.653817 0.000000 0.000000 -5.885947 0.000000 0.000000 -0.000000 0.000000 0.000000 -0.000000 0.000000 0.000000 12.528835 0.000000 0.000000 0.711642 0.000000 0.000000 -0.000000 0.000000 0.000000 0.000000 -90.000000 0.000000 -2.309062 0.000000 0.000000 2.309062 0.000000 0.000000 -0.000000 0.000000 0.000000 -0.000000 90.000000 0.000000 -2.309062 0.000000 0.000000 2.309062 0.000000 0.000000 8.520406 0.000000 0.000000 1.905762 0.000000 -0.000000 -4.658285 0.000000 0.000000 -0.000000 0.000000 0.000000 8.520406 0.000000 0.000000 1.905762 0.000000 -0.000000 -4.658285 0.000000 0.000000 -0.000000 0.000000
-6.895427 55.310752 31.964546 177.982686 -34.492181 -10.466563 2.764625 15.720445 6.388304 1.503383 9.046541 3.115276 1.949409 11.354697 3.966585 1.513625 9.005681 3.094298 -0.814150 29.059536 7.934270 -2.707025 7.027029 9.087916 3.198111 4.990998 -4.588583 14.261050 -52.876584 -20.466205 -20.323010 -46.293489 22.340376 2.657826 -10.828925 -27.464614 -15.778440 10.239684 -0.400361 4.344238 -9.429027 -1.407626 -99.917838 -82.767477 105.319947 10.181642 -9.115514 -2.589978 -13.745627 -32.910431 6.444340 7.106941 84.573410 0.919943 -1.874659 -14.159804 4.382728 -0.025037 0.535237 -0.016330 -12.106208 -43.632919 15.283457 174.615546 80.333579 170.465364 -2.191085 -17.524067 2.202818 -0.038136 -0.534946 -0.052636
-6.880304 55.306363 31.956814 177.969887 -34.481855 -10.458453 2.773089 15.701347 6.383788 1.506479 9.037291 3.113526 1.966580 11.279309 3.940466 1.508246 9.025135 3.106970 -0.809453 29.112730 7.920057 -2.698235 7.095486 9.072098 3.176427 4.996925 -4.569880 14.237703 -52.892073 -20.385866 -20.548447 -46.168088 22.382297 2.642779 -10.810544 -27.426042 -15.810314 10.257302 -0.395083 4.384836 -9.405009 -1.407599 -99.548389 -82.757413 104.934788 10.189743 -9.161391 -2.557835 -13.755940 -32.927361 6.448054 7.202232 84.593141 1.032128 -1.867614 -14.170719 4.354108 -0.021958 0.538373 -0.015797 -12.117644 -43.642676 15.285861 174.545583 80.314631 170.412423 -2.188845 -17.541542 2.177218 -0.041728 -0.535062 -0.047315
-6.865659 55.300855 31.947978 177.961249 -34.468215 -10.437882 2.778687 15.647199 6.364009 1.501507 9.059253 3.114449 1.973786 11.224567 3.926192 1.507247 9.021050 3.108037 -0.809404 29.172436 7.910336 -2.696775 7.157290 9.035494 3.160406 5.024318 -4.550779 14.205267 -52.946139 -20.312336 -20.736153 -46.028669 22.423795 2.639518 -10.800127 -27.383320 -15.834510 10.277300 -0.393338 4.416735 -9.383651 -1.416621 -99.053536 -82.750262 104.441925 10.205803 -9.177713 -2.553206 -13.772760 -32.950071 6.440937 7.352668 84.617414 1.187614 -1.856713 -14.191045 4.328245 -0.033531 0.544199 -0.017234 -12.155493 -43.652364 15.273423 174.420710 80.293476 170.294378 -2.179409 -17.557279 2.149058 -0.037643 -0.536216 -0.060054
-6.847751 55.296664 31.937011 177.962514 -34.467447 -10.436120 2.778302 15.631217 6.360067 1.505356 9.036133 3.110721 1.967472 11.203256 3.920060 1.507352 9.003679 3.103582 -0.804472 29.242896 7.920822 -2.701151 7.201646 8.970558 3.151487 5.041647 -4.534248 14.147448 -52.969099 -20.235314 -20.884168 -45.923036 22.466691 2.645790 -10.802244 -27.344150 -15.849895 10.297359 -0.394549 4.444864 -9.367615 -1.435196 -98.175038 -82.785448 103.596625 10.189991 -9.215506 -2.587213 -13.800495 -32.953191 6.429278 7.721505 84.639327 1.590136 -1.871001 -14.212466 4.276567 -0.018113 0.547543 -0.016089 -12.180852 -43.649068 15.270167 174.371638 80.271792 170.262782 -2.163338 -17.578764 2.112093 -0.039200 -0.536223 -0.060878
-6.830542 55.291244 31.927462 177.962042 -34.456992 -10.428557 2.775017 15.616110 6.351361 1.499029 8.977448 3.098202 1.963521 11.211729 3.921527 1.512486 9.021170 3.107036 -0.806370 29.256447 7.878263 -2.699889 7.259094 8.943224 3.150481 5.062415 -4.525813 14.104689 -53.018246 -20.189373 -20.913866 -45.856811 22.465053 2.631502 -10.813136 -27.340610 -15.857629 10.291784 -0.396039 4.468260 -9.374074 -1.463686 -97.405260 -82.795712 102.844780 10.176444 -9.213479 -2.597567 -13.845794 -32.966127 6.438752 7.887198 84.661892 1.755627 -1.869719 -14.233620 4.242187 -0.013756 0.550871 -0.017089 -12.206915 -43.657231 15.265577 174.358976 80.251458 170.263344 -2.144278 -17.598941 2.084317 -0.040885 -0.535118 -0.060273
-6.813822 55.285370 31.919382 177.937228 -34.445224 -10.407833 2.779413 15.582162 6.338217 1.494513 8.958883 3.092713 1.966670 11.213350 3.920098 1.515296 9.022470 3.106451 -0.814690 29.266880 7.837872 -2.692099 7.310360 8.907155 3.150856 5.066017 -4.526636 14.071602 -53.029187 -20.145212 -21.000035 -45.820516 22.446194 2.675576 -10.796350 -27.264035 -15.856873 10.314388 -0.398643 4.477589 -9.386945 -1.480374 -96.800488 -82.815914 102.270368 10.159867 -9.207416 -2.601410 -13.861062 -32.985971 6.450326 7.972121 84.683203 1.838975 -1.854099 -14.257696 4.221115 -0.036978 0.560536 -0.022682 -12.200868 -43.670428 15.260885 174.364786 80.233112 170.285282 -2.135549 -17.619599 2.072866 -0.039538 -0.533825 -0.066473
-6.797653 55.280599 31.911226 177.929059 -34.441264 -10.398921 2.770047 15.560960 6.328072 1.497345 8.954067 3.089290 1.971964 11.224434 3.922283 1.498520 8.940687 3.085608 -0.817892 29.321820 7.766102 -2.670102 7.366096 8.906157 3.169330 5.125944 -4.510408 14.075720 -53.033412 -20.137519 -21.038328 -45.801083 22.382274 2.656215 -10.808019 -27.229414 -15.855532 10.349835 -0.408999 4.493046 -9.357271 -1.492918 -96.355657 -82.817844 101.839164 10.152076 -9.203815 -2.600671 -13.882359 -32.994369 6.457834 8.054994 84.703260 1.925063 -1.835783 -14.275898 4.194675 -0.016261 0.564330 -0.019360 -12.232169 -43.669376 15.267101 174.360832 80.214997 170.283545 -2.115043 -17.639107 2.041953 -0.042126 -0.532770 -0.061729
